<svg xmlns="http://www.w3.org/2000/svg" viewBox="0 0 47.5 47.5" id="hamburger">
  <defs>
    <clipPath id="a">
      <path d="M0 38h38V0H0v38Z"></path>
    </clipPath>
  </defs>
  <g clip-path="url(#a)" transform="matrix(1.25 0 0 -1.25 0 47.5)">
    <path fill="#d99e82" d="M35.935 10.323c0 6.651-7.597 12.042-16.967 12.042C9.597 22.365 2 16.974 2 10.323c0-6.649 7.597-8.162 16.968-8.162 9.37 0 16.967 1.513 16.967 8.162"></path>
    <path fill="#662113" d="M35.935 16.14c0 6.651-7.597 12.042-16.967 12.042C9.597 28.182 2 22.791 2 16.14c0-6.649 7.597-8.162 16.968-8.162 9.37 0 16.967 1.513 16.967 8.162"></path>
    <path fill="#ffcc4d" d="M20.167 10.549c-.964-.531-1.288-.529-2.25.003 0 0-7 3.615-15.709 6.323-1.166.583-.267 2.625.834 2.625l31.875-.041c1.1 0 2.005-2.311 1.125-2.542-6.209-1.625-15.875-6.368-15.875-6.368"></path>
    <path fill="#d99e82" d="M35.935 21.959c0 6.651-7.597 12.042-16.967 12.042C9.597 34.001 2 28.61 2 21.959c0-6.65 7.597-7.375 16.968-7.375 9.37 0 16.967.725 16.967 7.375"></path>
    <path fill="#ffe8b6" d="M10.742 28.976a1.07 1.07 0 1 0 1.152 1.802c.498-.318 1.244-1.363.927-1.861-.319-.498-1.581-.26-2.079.059M21.627 31.813a1.07 1.07 0 1 0 .66-2.034c-.562-.183-1.844-.096-2.026.466-.183.562.804 1.386 1.366 1.568M32.208 22.725a1.07 1.07 0 0 0-1.638 1.376c.381.452 1.514 1.058 1.966.677.453-.38.053-1.6-.328-2.053M27.742 27.976a1.068 1.068 0 1 0 1.151 1.802c.498-.318 1.245-1.363.927-1.861-.318-.498-1.58-.26-2.078.059M12.742 20.977a1.07 1.07 0 0 0 1.151 1.802c.498-.319 1.245-1.364.927-1.861-.318-.499-1.58-.26-2.078.059M16.94 27.586a1.068 1.068 0 1 0 1.76-1.215c-.336-.486-1.407-1.196-1.893-.86-.487.336-.203 1.589.133 2.075M23.742 20.977a1.07 1.07 0 0 0 1.151 1.802c.498-.319 1.245-1.364.927-1.861-.318-.499-1.58-.26-2.078.059M6.058 26.665a1.07 1.07 0 1 0 1.593-1.427c-.394-.44-1.546-1.009-1.985-.615-.441.395-.003 1.602.392 2.042"></path>
  </g>
</svg>
